<mxfile host="" modified="2020-07-28T05:42:18.355Z" agent="5.0 (X11; Linux x86_64) AppleWebKit/537.36 (KHTML, like Gecko) Code/1.46.1 Chrome/78.0.3904.130 Electron/7.3.1 Safari/537.36" etag="BnkkNT1fjpeSaIFL64c3" version="13.1.3" pages="3">
    <diagram id="6hGFLwfOUW9BJ-s0fimq" name="CI CD">
        <mxGraphModel dx="1563" dy="615" grid="1" gridSize="10" guides="1" tooltips="1" connect="1" arrows="1" fold="1" page="1" pageScale="1" pageWidth="827" pageHeight="1169" math="0" shadow="0">
            <root>
                <mxCell id="0"/>
                <mxCell id="1" parent="0"/>
                <mxCell id="41" value="" style="rounded=0;whiteSpace=wrap;html=1;" parent="1" vertex="1">
                    <mxGeometry x="-40" y="240" width="840" height="480" as="geometry"/>
                </mxCell>
                <mxCell id="14" value="" style="rounded=0;whiteSpace=wrap;html=1;fillColor=#76608a;strokeColor=#432D57;fontColor=#ffffff;glass=0;shadow=0;comic=0;" parent="1" vertex="1">
                    <mxGeometry x="560" y="320" width="200" height="130" as="geometry"/>
                </mxCell>
                <mxCell id="15" value="&lt;font style=&quot;font-size: 18px&quot;&gt;C. DEPLOYMENT (CD)&lt;/font&gt;" style="text;html=1;align=center;verticalAlign=middle;resizable=0;points=[];autosize=1;" parent="1" vertex="1">
                    <mxGeometry x="555" y="330" width="210" height="20" as="geometry"/>
                </mxCell>
                <mxCell id="11" value="" style="rounded=0;whiteSpace=wrap;html=1;fillColor=#60a917;strokeColor=#2D7600;fontColor=#ffffff;glass=0;shadow=0;comic=0;" parent="1" vertex="1">
                    <mxGeometry x="380" y="320" width="180" height="130" as="geometry"/>
                </mxCell>
                <mxCell id="9" value="" style="rounded=0;whiteSpace=wrap;html=1;fillColor=#1ba1e2;strokeColor=#006EAF;fontColor=#ffffff;" parent="1" vertex="1">
                    <mxGeometry x="20" y="320" width="360" height="130" as="geometry"/>
                </mxCell>
                <mxCell id="3" value="&lt;b&gt;&lt;font style=&quot;font-size: 15px&quot;&gt;BUILD&lt;/font&gt;&lt;/b&gt;" style="shape=step;perimeter=stepPerimeter;whiteSpace=wrap;html=1;fixedSize=1;" parent="1" vertex="1">
                    <mxGeometry x="30" y="360" width="120" height="80" as="geometry"/>
                </mxCell>
                <mxCell id="4" value="&lt;b&gt;&lt;font style=&quot;font-size: 15px&quot;&gt;TEST&lt;/font&gt;&lt;/b&gt;" style="shape=step;perimeter=stepPerimeter;whiteSpace=wrap;html=1;fixedSize=1;" parent="1" vertex="1">
                    <mxGeometry x="140" y="360" width="120" height="80" as="geometry"/>
                </mxCell>
                <mxCell id="5" value="&lt;b&gt;&lt;font style=&quot;font-size: 15px&quot;&gt;MERGE&lt;/font&gt;&lt;/b&gt;" style="shape=step;perimeter=stepPerimeter;whiteSpace=wrap;html=1;fixedSize=1;" parent="1" vertex="1">
                    <mxGeometry x="250" y="360" width="120" height="80" as="geometry"/>
                </mxCell>
                <mxCell id="6" value="&lt;b&gt;&lt;font style=&quot;font-size: 15px&quot;&gt;RELEASE&lt;br&gt;AUTO&lt;br&gt;&lt;/font&gt;&lt;/b&gt;" style="shape=step;perimeter=stepPerimeter;whiteSpace=wrap;html=1;fixedSize=1;" parent="1" vertex="1">
                    <mxGeometry x="390" y="360" width="160" height="80" as="geometry"/>
                </mxCell>
                <mxCell id="7" value="&lt;b&gt;&lt;font style=&quot;font-size: 15px&quot;&gt;DEPLOYMENT&lt;br&gt;AUTO&lt;/font&gt;&lt;/b&gt;" style="shape=step;perimeter=stepPerimeter;whiteSpace=wrap;html=1;fixedSize=1;" parent="1" vertex="1">
                    <mxGeometry x="580" y="360" width="160" height="80" as="geometry"/>
                </mxCell>
                <mxCell id="10" value="&lt;font style=&quot;font-size: 18px&quot;&gt;CONTINUOUS INTEGRATION (CI)&lt;/font&gt;" style="text;html=1;align=center;verticalAlign=middle;resizable=0;points=[];autosize=1;" parent="1" vertex="1">
                    <mxGeometry x="50" y="330" width="300" height="20" as="geometry"/>
                </mxCell>
                <mxCell id="13" value="&lt;font style=&quot;font-size: 18px&quot;&gt;C. DELIVERY (CD)&lt;/font&gt;" style="text;html=1;align=center;verticalAlign=middle;resizable=0;points=[];autosize=1;" parent="1" vertex="1">
                    <mxGeometry x="385" y="330" width="170" height="20" as="geometry"/>
                </mxCell>
                <mxCell id="28" value="" style="rounded=0;whiteSpace=wrap;html=1;fillColor=#76608a;strokeColor=#432D57;fontColor=#ffffff;glass=0;shadow=0;comic=0;" parent="1" vertex="1">
                    <mxGeometry x="560" y="560" width="200" height="130" as="geometry"/>
                </mxCell>
                <mxCell id="29" value="&lt;font style=&quot;font-size: 18px&quot;&gt;C. DEPLOYMENT (CD)&lt;/font&gt;" style="text;html=1;align=center;verticalAlign=middle;resizable=0;points=[];autosize=1;" parent="1" vertex="1">
                    <mxGeometry x="555" y="570" width="210" height="20" as="geometry"/>
                </mxCell>
                <mxCell id="30" value="" style="rounded=0;whiteSpace=wrap;html=1;fillColor=#60a917;strokeColor=#2D7600;fontColor=#ffffff;glass=0;shadow=0;comic=0;" parent="1" vertex="1">
                    <mxGeometry x="380" y="560" width="180" height="130" as="geometry"/>
                </mxCell>
                <mxCell id="31" value="" style="rounded=0;whiteSpace=wrap;html=1;fillColor=#1ba1e2;strokeColor=#006EAF;fontColor=#ffffff;" parent="1" vertex="1">
                    <mxGeometry x="20" y="560" width="360" height="130" as="geometry"/>
                </mxCell>
                <mxCell id="32" value="&lt;span style=&quot;font-size: 15px&quot;&gt;&lt;b&gt;HUMAN&lt;/b&gt;&lt;/span&gt;" style="shape=step;perimeter=stepPerimeter;whiteSpace=wrap;html=1;fixedSize=1;" parent="1" vertex="1">
                    <mxGeometry x="30" y="600" width="340" height="80" as="geometry"/>
                </mxCell>
                <mxCell id="35" value="&lt;b&gt;&lt;font style=&quot;font-size: 15px&quot;&gt;RELEASE&lt;br&gt;AUTO&lt;br&gt;(ARGO CD)&lt;br&gt;&lt;/font&gt;&lt;/b&gt;" style="shape=step;perimeter=stepPerimeter;whiteSpace=wrap;html=1;fixedSize=1;" parent="1" vertex="1">
                    <mxGeometry x="390" y="600" width="160" height="80" as="geometry"/>
                </mxCell>
                <mxCell id="36" value="&lt;b&gt;&lt;font style=&quot;font-size: 15px&quot;&gt;DEPLOYMENT&lt;br&gt;AUTO&lt;br&gt;(ARGO CD)&lt;br&gt;&lt;/font&gt;&lt;/b&gt;" style="shape=step;perimeter=stepPerimeter;whiteSpace=wrap;html=1;fixedSize=1;" parent="1" vertex="1">
                    <mxGeometry x="580" y="600" width="160" height="80" as="geometry"/>
                </mxCell>
                <mxCell id="37" value="&lt;font style=&quot;font-size: 18px&quot;&gt;CONTINUOUS INTEGRATION (CI)&lt;/font&gt;" style="text;html=1;align=center;verticalAlign=middle;resizable=0;points=[];autosize=1;" parent="1" vertex="1">
                    <mxGeometry x="50" y="570" width="300" height="20" as="geometry"/>
                </mxCell>
                <mxCell id="38" value="&lt;font style=&quot;font-size: 18px&quot;&gt;C. DELIVERY (CD)&lt;/font&gt;" style="text;html=1;align=center;verticalAlign=middle;resizable=0;points=[];autosize=1;" parent="1" vertex="1">
                    <mxGeometry x="385" y="570" width="170" height="20" as="geometry"/>
                </mxCell>
                <mxCell id="39" value="&lt;font style=&quot;font-size: 25px&quot;&gt;PROCESO CI/CD&lt;/font&gt;" style="text;html=1;align=center;verticalAlign=middle;resizable=0;points=[];autosize=1;" parent="1" vertex="1">
                    <mxGeometry x="20" y="280" width="210" height="20" as="geometry"/>
                </mxCell>
                <mxCell id="40" value="&lt;font style=&quot;font-size: 25px&quot;&gt;PROCESO CI/CD PARA LA PRESENTACIÓN&lt;/font&gt;" style="text;html=1;align=center;verticalAlign=middle;resizable=0;points=[];autosize=1;" parent="1" vertex="1">
                    <mxGeometry x="20" y="520" width="530" height="20" as="geometry"/>
                </mxCell>
            </root>
        </mxGraphModel>
    </diagram>
    <diagram id="I-Ttwt_0lh8s9nn-YSUw" name="Alternativas">
        <mxGraphModel dx="1586" dy="615" grid="1" gridSize="10" guides="1" tooltips="1" connect="1" arrows="1" fold="1" page="1" pageScale="1" pageWidth="850" pageHeight="1100" math="0" shadow="0">
            <root>
                <mxCell id="hU35F9jV-jP1izFeHSrd-0"/>
                <mxCell id="hU35F9jV-jP1izFeHSrd-1" parent="hU35F9jV-jP1izFeHSrd-0"/>
                <mxCell id="DT44pKcotNbY4nY1HDdd-0" value="" style="shape=ext;double=1;whiteSpace=wrap;html=1;aspect=fixed;rounded=0;shadow=0;glass=0;comic=0;fillColor=#f5f5f5;strokeColor=#666666;fontColor=#333333;" parent="hU35F9jV-jP1izFeHSrd-1" vertex="1">
                    <mxGeometry x="-320" y="80" width="160" height="160" as="geometry"/>
                </mxCell>
                <mxCell id="DT44pKcotNbY4nY1HDdd-1" value="&lt;meta http-equiv=&quot;content-type&quot; content=&quot;text/html; charset=utf-8&quot;&gt;&lt;img src=&quot;https://blog.wescale.fr/content/images/size/w760h400/2018/07/spinnaker.png&quot; alt=&quot;https://blog.wescale.fr/content/images/size/w760h400/2018/07/spinnaker.png&quot; class=&quot;transparent&quot;&gt;" style="text;whiteSpace=wrap;html=1;" parent="hU35F9jV-jP1izFeHSrd-1" vertex="1">
                    <mxGeometry x="-307.5" y="95" width="135" height="120" as="geometry"/>
                </mxCell>
                <mxCell id="DT44pKcotNbY4nY1HDdd-2" value="&lt;blockquote style=&quot;margin: 0 0 0 40px ; border: none ; padding: 0px&quot;&gt;&lt;/blockquote&gt;&lt;ul&gt;&lt;li&gt;Solución pesada/robusta.&lt;/li&gt;&lt;li&gt;Combina múltiples herramientas que la hacen: Flexible y compleja.&lt;/li&gt;&lt;li&gt;Cloud-agnostic deployment.&lt;/li&gt;&lt;li&gt;Madura.&lt;/li&gt;&lt;li&gt;No sigue el patrón GitOps.&lt;/li&gt;&lt;/ul&gt;" style="rounded=0;whiteSpace=wrap;html=1;shadow=0;glass=0;comic=0;align=left;" parent="hU35F9jV-jP1izFeHSrd-1" vertex="1">
                    <mxGeometry x="-320" y="240" width="160" height="200" as="geometry"/>
                </mxCell>
                <mxCell id="eUFbecEy91LvtFt2WVmd-0" value="" style="shape=ext;double=1;whiteSpace=wrap;html=1;aspect=fixed;rounded=0;shadow=0;glass=0;comic=0;fillColor=#f5f5f5;strokeColor=#666666;fontColor=#333333;" parent="hU35F9jV-jP1izFeHSrd-1" vertex="1">
                    <mxGeometry x="80" y="80" width="160" height="160" as="geometry"/>
                </mxCell>
                <mxCell id="eUFbecEy91LvtFt2WVmd-1" value="&lt;blockquote style=&quot;margin: 0 0 0 40px ; border: none ; padding: 0px&quot;&gt;&lt;/blockquote&gt;&lt;ul&gt;&lt;li&gt;Liviana.&lt;/li&gt;&lt;li&gt;Solución nativa K8S.&lt;/li&gt;&lt;li&gt;Patrón GitOps.&lt;/li&gt;&lt;li&gt;No provee GUI.&lt;/li&gt;&lt;li&gt;&lt;span&gt;CNCF: Sanbox.&lt;/span&gt;&lt;br&gt;&lt;/li&gt;&lt;/ul&gt;" style="rounded=0;whiteSpace=wrap;html=1;shadow=0;glass=0;comic=0;align=left;" parent="hU35F9jV-jP1izFeHSrd-1" vertex="1">
                    <mxGeometry x="80" y="240" width="160" height="200" as="geometry"/>
                </mxCell>
                <mxCell id="eUFbecEy91LvtFt2WVmd-2" value="" style="shape=ext;double=1;whiteSpace=wrap;html=1;aspect=fixed;rounded=0;shadow=0;glass=0;comic=0;fillColor=#f5f5f5;strokeColor=#666666;fontColor=#333333;" parent="hU35F9jV-jP1izFeHSrd-1" vertex="1">
                    <mxGeometry x="-120" y="80" width="160" height="160" as="geometry"/>
                </mxCell>
                <mxCell id="eUFbecEy91LvtFt2WVmd-3" value="&lt;blockquote style=&quot;margin: 0 0 0 40px ; border: none ; padding: 0px&quot;&gt;&lt;/blockquote&gt;&lt;ul&gt;&lt;li&gt;&lt;span&gt;Incluye soluciones para CI/CD.&lt;/span&gt;&lt;/li&gt;&lt;li&gt;&lt;span&gt;Solución completa basa en otras soluciones.&lt;/span&gt;&lt;/li&gt;&lt;li&gt;&lt;span&gt;Usa Prow (CI K8S)&lt;/span&gt;&lt;br&gt;&lt;/li&gt;&lt;li&gt;Solución nativa K8S.&lt;/li&gt;&lt;li&gt;&lt;span&gt;En algunos casos puede ser compleja de configurar.&lt;/span&gt;&lt;br&gt;&lt;/li&gt;&lt;/ul&gt;" style="rounded=0;whiteSpace=wrap;html=1;shadow=0;glass=0;comic=0;align=left;" parent="hU35F9jV-jP1izFeHSrd-1" vertex="1">
                    <mxGeometry x="-120" y="240" width="160" height="200" as="geometry"/>
                </mxCell>
                <mxCell id="eUFbecEy91LvtFt2WVmd-4" value="" style="shape=image;verticalLabelPosition=bottom;labelBackgroundColor=#ffffff;verticalAlign=top;aspect=fixed;imageAspect=0;image=https://www.jenkins.io/images/jenkins-x-logo.svg;" parent="hU35F9jV-jP1izFeHSrd-1" vertex="1">
                    <mxGeometry x="-110" y="120" width="140" height="100" as="geometry"/>
                </mxCell>
                <mxCell id="eUFbecEy91LvtFt2WVmd-5" value="&lt;meta http-equiv=&quot;content-type&quot; content=&quot;text/html; charset=utf-8&quot;&gt;&lt;img src=&quot;https://fluxcd.io/img/logos/flux-horizontal-color.png&quot; alt=&quot;https://fluxcd.io/img/logos/flux-horizontal-color.png&quot; class=&quot;transparent overflowingVertical&quot;&gt;" style="text;whiteSpace=wrap;html=1;" parent="hU35F9jV-jP1izFeHSrd-1" vertex="1">
                    <mxGeometry x="90" y="120" width="140" height="140" as="geometry"/>
                </mxCell>
                <mxCell id="eUFbecEy91LvtFt2WVmd-6" value="" style="shape=ext;double=1;whiteSpace=wrap;html=1;aspect=fixed;rounded=0;shadow=0;glass=0;comic=0;fillColor=#f5f5f5;strokeColor=#666666;fontColor=#333333;" parent="hU35F9jV-jP1izFeHSrd-1" vertex="1">
                    <mxGeometry x="280" y="80" width="160" height="160" as="geometry"/>
                </mxCell>
                <mxCell id="eUFbecEy91LvtFt2WVmd-7" value="&lt;blockquote style=&quot;margin: 0 0 0 40px ; border: none ; padding: 0px&quot;&gt;&lt;/blockquote&gt;&lt;ul&gt;&lt;li&gt;Liviana.&lt;/li&gt;&lt;li&gt;Solución nativa K8S.&lt;/li&gt;&lt;li&gt;Patrón GitOps.&lt;/li&gt;&lt;li&gt;&lt;span&gt;No es muy flexible.&lt;/span&gt;&lt;/li&gt;&lt;li&gt;&lt;span&gt;Declarativo.&lt;/span&gt;&lt;br&gt;&lt;/li&gt;&lt;li&gt;GUI basada en elementos K8S.&lt;/li&gt;&lt;li&gt;CNCF: Incubating.&amp;nbsp;&lt;/li&gt;&lt;/ul&gt;" style="rounded=0;whiteSpace=wrap;html=1;shadow=0;glass=0;comic=0;align=left;" parent="hU35F9jV-jP1izFeHSrd-1" vertex="1">
                    <mxGeometry x="280" y="240" width="160" height="200" as="geometry"/>
                </mxCell>
                <mxCell id="eUFbecEy91LvtFt2WVmd-8" value="" style="shape=image;verticalLabelPosition=bottom;labelBackgroundColor=#ffffff;verticalAlign=top;aspect=fixed;imageAspect=0;image=https://www.inovex.de/blog/wp-content/uploads/2019/07/argo-cd.png;" parent="hU35F9jV-jP1izFeHSrd-1" vertex="1">
                    <mxGeometry x="295" y="90" width="130" height="130" as="geometry"/>
                </mxCell>
            </root>
        </mxGraphModel>
    </diagram>
    <diagram id="eOsOh0RxyaTygsL22AFW" name="Sources">
        &#xa;        
        <mxGraphModel dx="736" dy="615" grid="1" gridSize="10" guides="1" tooltips="1" connect="1" arrows="1" fold="1" page="1" pageScale="1" pageWidth="850" pageHeight="1100" math="0" shadow="0">
            &#xa;            
            <root>
                &#xa;                
                <mxCell id="hfWWIOg-Q0GT3QNxSwIV-0"/>
                &#xa;                
                <mxCell id="hfWWIOg-Q0GT3QNxSwIV-1" parent="hfWWIOg-Q0GT3QNxSwIV-0"/>
                &#xa;                
                <mxCell id="hfWWIOg-Q0GT3QNxSwIV-2" value="&lt;ul&gt;&lt;li&gt;https://www.inovex.de/blog/spinnaker-vs-argo-cd-vs-tekton-vs-jenkins-x/&lt;/li&gt;&lt;li&gt;https://luktom.net/en/e1683-argocd-vs-flux&lt;/li&gt;&lt;li&gt;https://www.redhat.com/cms/managed-files/ci-cd-flow-mobile_0.png&lt;br&gt;&lt;/li&gt;&lt;li&gt;https://www.atlassian.com/continuous-delivery/principles/continuous-integration-vs-delivery-vs-deployment&lt;br&gt;&lt;/li&gt;&lt;/ul&gt;" style="text;html=1;align=left;verticalAlign=middle;resizable=0;points=[];autosize=1;" parent="hfWWIOg-Q0GT3QNxSwIV-1" vertex="1">
                    &#xa;                    
                    <mxGeometry x="30" y="70" width="620" height="80" as="geometry"/>
                    &#xa;                
                </mxCell>
                &#xa;            
            </root>
            &#xa;        
        </mxGraphModel>
        &#xa;    
    </diagram>
</mxfile>